<svg width="21" height="21" viewBox="0 0 21 21" fill="none" xmlns="http://www.w3.org/2000/svg">
<path d="M19.8247 2.83716L17.173 0.18555C16.9289 -0.0585948 16.5332 -0.0585948 16.289 0.18555L15.405 1.06955C15.1609 1.31369 15.1609 1.7094 15.405 1.95355L12.4101 4.94852C10.5905 4.17898 8.41001 4.52937 6.92678 6.01221L0.739954 12.199C-0.236235 13.1752 -0.236235 14.7585 0.739954 15.7346L4.27556 19.2703C5.25175 20.2464 6.83498 20.2464 7.81117 19.2703L13.9984 13.083C15.4812 11.6002 15.8316 9.4193 15.0621 7.59974L18.057 4.60477C18.3012 4.84891 18.6969 4.84891 18.941 4.60477L19.825 3.72077C20.0688 3.47701 20.0688 3.0813 19.8247 2.83716V2.83716ZM7.00842 16.5374L3.47281 13.0018L8.24008 8.23452L11.7757 11.7701L7.00842 16.5374V16.5374Z" fill="white"/>
</svg>
